<?xml version="1.0" encoding="UTF-8" standalone="no"?>
<svg
   xmlns:dc="http://purl.org/dc/elements/1.1/"
   xmlns:cc="http://creativecommons.org/ns#"
   xmlns:rdf="http://www.w3.org/1999/02/22-rdf-syntax-ns#"
   xmlns:svg="http://www.w3.org/2000/svg"
   xmlns="http://www.w3.org/2000/svg"
   id="svg23"
   version="1.2"
   viewBox="0 0 218.37 91.21"
   height="91.21pt"
   width="218.37pt">
  <metadata
     id="metadata27">
    <rdf:RDF>
      <cc:Work
         rdf:about="">
        <dc:format>image/svg+xml</dc:format>
        <dc:type
           rdf:resource="http://purl.org/dc/dcmitype/StillImage" />
        <dc:title></dc:title>
      </cc:Work>
    </rdf:RDF>
  </metadata>
  <defs
     id="defs8">
    <clipPath
       id="clip1">
      <path
         id="path2"
         d="M 183 8 L 218.371094 8 L 218.371094 68 L 183 68 Z M 183 8 " />
    </clipPath>
    <clipPath
       id="clip2">
      <path
         id="path5"
         d="M 0 0 L 92 0 L 92 91.210938 L 0 91.210938 Z M 0 0 " />
    </clipPath>
  </defs>
  <g
     id="surface808">
    <path
       id="path10"
       d="M 130.871094 31.042969 C 126.085938 31.042969 122.519531 33.394531 122.519531 39.054688 C 122.519531 43.316406 124.867188 46.277344 130.613281 46.277344 C 135.484375 46.277344 138.792969 43.40625 138.792969 38.878906 C 138.792969 33.746094 135.832031 31.042969 130.871094 31.042969 Z M 121.300781 70.996094 C 120.167969 72.386719 119.039062 73.863281 119.039062 75.609375 C 119.039062 79.085938 123.472656 80.132812 129.566406 80.132812 C 134.617188 80.132812 141.492188 79.78125 141.492188 75.085938 C 141.492188 72.296875 138.183594 72.125 134.003906 71.863281 Z M 147.0625 31.308594 C 148.625 33.308594 150.28125 36.09375 150.28125 40.097656 C 150.28125 49.757812 142.710938 55.414062 131.746094 55.414062 C 128.957031 55.414062 126.433594 55.066406 124.867188 54.632812 L 121.996094 59.246094 L 130.523438 59.765625 C 145.582031 60.726562 154.457031 61.160156 154.457031 72.730469 C 154.457031 82.742188 145.667969 88.398438 130.523438 88.398438 C 114.773438 88.398438 108.765625 84.394531 108.765625 77.519531 C 108.765625 73.601562 110.507812 71.515625 113.554688 68.640625 C 110.679688 67.425781 109.726562 65.253906 109.726562 62.902344 C 109.726562 60.984375 110.679688 59.246094 112.25 57.589844 C 113.816406 55.9375 115.554688 54.28125 117.644531 52.367188 C 113.382812 50.28125 110.160156 45.753906 110.160156 39.3125 C 110.160156 29.304688 116.773438 22.433594 130.089844 22.433594 C 133.832031 22.433594 136.09375 22.777344 138.097656 23.300781 L 155.070312 23.300781 L 155.070312 30.699219 L 147.0625 31.308594 "
       style=" stroke:none;fill-rule:nonzero;fill:rgb(21.060181%,15.489197%,0.340271%);fill-opacity:1;" />
    <path
       id="path12"
       d="M 170.378906 15.492188 C 165.417969 15.492188 162.546875 12.617188 162.546875 7.65625 C 162.546875 2.699219 165.417969 0 170.378906 0 C 175.429688 0 178.300781 2.699219 178.300781 7.65625 C 178.300781 12.617188 175.429688 15.492188 170.378906 15.492188 Z M 159.152344 67.792969 L 159.152344 60.921875 L 163.589844 60.316406 C 164.808594 60.136719 164.984375 59.878906 164.984375 58.570312 L 164.984375 32.984375 C 164.984375 32.027344 164.722656 31.417969 163.851562 31.15625 L 159.152344 29.503906 L 160.109375 22.457031 L 178.125 22.457031 L 178.125 58.570312 C 178.125 59.964844 178.210938 60.136719 179.519531 60.316406 L 183.957031 60.921875 L 183.957031 67.792969 L 159.152344 67.792969 "
       style=" stroke:none;fill-rule:nonzero;fill:rgb(21.060181%,15.489197%,0.340271%);fill-opacity:1;" />
    <g
       id="g16"
       clip-rule="nonzero"
       clip-path="url(#clip1)">
      <path
         id="path14"
         d="M 218.371094 64.421875 C 214.628906 66.246094 209.148438 67.898438 204.183594 67.898438 C 193.828125 67.898438 189.914062 63.726562 189.914062 53.886719 L 189.914062 31.085938 C 189.914062 30.566406 189.914062 30.214844 189.214844 30.214844 L 183.121094 30.214844 L 183.121094 22.472656 C 190.785156 21.597656 193.828125 17.769531 194.785156 8.28125 L 203.054688 8.28125 L 203.054688 20.644531 C 203.054688 21.253906 203.054688 21.515625 203.75 21.515625 L 216.019531 21.515625 L 216.019531 30.214844 L 203.054688 30.214844 L 203.054688 51.015625 C 203.054688 56.152344 204.273438 58.152344 208.972656 58.152344 C 211.410156 58.152344 213.933594 57.542969 216.019531 56.757812 L 218.371094 64.421875 "
         style=" stroke:none;fill-rule:nonzero;fill:rgb(21.060181%,15.489197%,0.340271%);fill-opacity:1;" />
    </g>
    <g
       id="g20"
       clip-rule="nonzero"
       clip-path="url(#clip2)">
      <path
         id="path18"
         d="M 89.421875 41.582031 L 49.628906 1.789062 C 47.339844 -0.5 43.621094 -0.5 41.328125 1.789062 L 33.066406 10.054688 L 43.546875 20.535156 C 45.984375 19.714844 48.777344 20.265625 50.71875 22.207031 C 52.667969 24.160156 53.21875 26.976562 52.375 29.421875 L 62.476562 39.523438 C 64.921875 38.683594 67.738281 39.226562 69.691406 41.179688 C 72.421875 43.910156 72.421875 48.328125 69.691406 51.058594 C 66.964844 53.785156 62.542969 53.785156 59.8125 51.058594 C 57.761719 49.003906 57.253906 45.988281 58.292969 43.460938 L 48.871094 34.039062 L 48.871094 58.832031 C 49.535156 59.164062 50.164062 59.601562 50.71875 60.152344 C 53.445312 62.882812 53.445312 67.300781 50.71875 70.03125 C 47.988281 72.757812 43.566406 72.757812 40.84375 70.03125 C 38.113281 67.300781 38.113281 62.882812 40.84375 60.152344 C 41.515625 59.480469 42.296875 58.972656 43.128906 58.628906 L 43.128906 33.605469 C 42.296875 33.265625 41.515625 32.761719 40.84375 32.082031 C 38.777344 30.019531 38.277344 26.984375 39.335938 24.449219 L 29.003906 14.113281 L 1.71875 41.398438 C -0.574219 43.691406 -0.574219 47.40625 1.71875 49.699219 L 41.511719 89.492188 C 43.804688 91.78125 47.519531 91.78125 49.8125 89.492188 L 89.421875 49.882812 C 91.714844 47.589844 91.714844 43.875 89.421875 41.582031 "
         style=" stroke:none;fill-rule:nonzero;fill:rgb(94.029236%,23.397827%,17.89093%);fill-opacity:1;" />
    </g>
  </g>
</svg>
